<svg width="13" height="15" viewBox="0 0 13 15" fill="none" xmlns="http://www.w3.org/2000/svg">
<path d="M2.52778 0H10.4722C10.5843 0 10.6949 0.0271087 10.7952 0.0791795C10.8955 0.13125 10.9827 0.206853 11.05 0.3L13 3V14.25C13 14.4489 12.9239 14.6397 12.7885 14.7803C12.653 14.921 12.4693 15 12.2778 15H0.722222C0.530677 15 0.346977 14.921 0.211534 14.7803C0.076091 14.6397 0 14.4489 0 14.25V3L1.95 0.3C2.01727 0.206853 2.10451 0.13125 2.20479 0.0791795C2.30507 0.0271087 2.41566 0 2.52778 0ZM11.1944 3L10.1111 1.5H2.88889L1.80556 3H11.1944ZM4.33333 6H2.88889V7.5C2.88889 8.49456 3.26934 9.44839 3.94656 10.1517C4.62377 10.8549 5.54227 11.25 6.5 11.25C7.45773 11.25 8.37623 10.8549 9.05344 10.1517C9.73066 9.44839 10.1111 8.49456 10.1111 7.5V6H8.66667V7.5C8.66667 8.09674 8.43839 8.66903 8.03206 9.09099C7.62574 9.51295 7.07464 9.75 6.5 9.75C5.92536 9.75 5.37426 9.51295 4.96794 9.09099C4.56161 8.66903 4.33333 8.09674 4.33333 7.5V6Z" fill="#686868"/>
</svg>
