<svg width="11" height="13" viewBox="0 0 11 13" fill="none" xmlns="http://www.w3.org/2000/svg">
<path d="M2.13889 0H8.86111C8.95598 0 9.04955 0.0234942 9.13441 0.0686223C9.21926 0.11375 9.29308 0.179273 9.35 0.26L11 2.6V12.35C11 12.5224 10.9356 12.6877 10.821 12.8096C10.7064 12.9315 10.551 13 10.3889 13H0.611111C0.449034 13 0.293596 12.9315 0.17899 12.8096C0.0643847 12.6877 0 12.5224 0 12.35V2.6L1.65 0.26C1.70692 0.179273 1.78074 0.11375 1.86559 0.0686223C1.95045 0.0234942 2.04402 0 2.13889 0ZM9.47222 2.6L8.55556 1.3H2.44444L1.52778 2.6H9.47222ZM3.66667 5.2H2.44444V6.5C2.44444 7.36195 2.76637 8.1886 3.3394 8.7981C3.91242 9.40759 4.68962 9.75 5.5 9.75C6.31038 9.75 7.08758 9.40759 7.6606 8.7981C8.23363 8.1886 8.55556 7.36195 8.55556 6.5V5.2H7.33333V6.5C7.33333 7.01717 7.14018 7.51316 6.79636 7.87886C6.45255 8.24455 5.98623 8.45 5.5 8.45C5.01377 8.45 4.54745 8.24455 4.20364 7.87886C3.85982 7.51316 3.66667 7.01717 3.66667 6.5V5.2Z" fill="white"/>
</svg>
