<svg width="10" height="9" viewBox="0 0 10 9" fill="none" xmlns="http://www.w3.org/2000/svg">
<path d="M6.683 0L8.2885 2.85036H10V3.8753H9.4165L9.038 8.53006C9.02759 8.65812 8.97063 8.7775 8.87839 8.86454C8.78615 8.95158 8.66538 8.99993 8.54 9H1.46C1.33462 8.99993 1.21385 8.95158 1.12161 8.86454C1.02937 8.7775 0.972406 8.65812 0.962 8.53006L0.583 3.8753H0V2.85036H1.711L3.317 0L4.183 0.51247L2.866 2.85036H7.1335L5.817 0.51247L6.683 0ZM8.413 3.8753H1.5865L1.92 7.97506H8.0795L8.413 3.8753ZM5.5 4.90024V6.95012H4.5V4.90024H5.5ZM3.5 4.90024V6.95012H2.5V4.90024H3.5ZM7.5 4.90024V6.95012H6.5V4.90024H7.5Z" fill="url(#paint0_linear_23_6)"/>
<defs>
<linearGradient id="paint0_linear_23_6" x1="-0.145349" y1="0.290323" x2="11.611" y2="4.48759" gradientUnits="userSpaceOnUse">
<stop offset="0.0001" stop-color="#0047FF"/>
<stop offset="1" stop-color="#EC00E2"/>
</linearGradient>
</defs>
</svg>
