<svg width="14" height="13" viewBox="0 0 14 13" fill="none" xmlns="http://www.w3.org/2000/svg">
<path d="M7.00057 1.07529C8.64484 -0.407913 11.1858 -0.358684 12.7699 1.23564C14.3532 2.83066 14.4078 5.37089 12.9351 7.0278L6.99917 13L1.06468 7.0278C-0.408088 5.37089 -0.352789 2.82644 1.22988 1.23564C2.81535 -0.356574 5.3514 -0.410023 7.00057 1.07529ZM11.7787 2.22936C10.7287 1.17305 9.03474 1.13015 7.93576 2.12176L7.00127 2.96428L6.06609 2.12247C4.96361 1.12944 3.27314 1.17305 2.22036 2.23077C1.17738 3.27865 1.12488 4.95596 2.08597 6.06431L6.99987 11.009L11.9138 6.06502C12.8756 4.95596 12.8231 3.28076 11.7787 2.22936Z" fill="#3E3E3E"/>
</svg>
