<svg width="18" height="18" viewBox="0 0 18 18" fill="none" xmlns="http://www.w3.org/2000/svg">
<path d="M13.2048 0.838654H5.01977C2.75953 0.838654 0.927246 2.67094 0.927246 4.93118V13.1162C0.927246 15.3765 2.75953 17.2087 5.01977 17.2087H13.2048C15.4651 17.2087 17.2973 15.3765 17.2973 13.1162V4.93118C17.2973 2.67094 15.4651 0.838654 13.2048 0.838654Z" fill="white" stroke="white" stroke-opacity="0.8" stroke-linecap="round" stroke-linejoin="round"/>
<path d="M12.3862 8.5078C12.4872 9.18899 12.3709 9.8847 12.0537 10.496C11.7365 11.1072 11.2347 11.6029 10.6196 11.9125C10.0045 12.2221 9.30737 12.3299 8.62747 12.2205C7.94757 12.1111 7.31948 11.7901 6.83254 11.3031C6.34559 10.8162 6.02459 10.1881 5.91518 9.50818C5.80578 8.82828 5.91354 8.1312 6.22315 7.51608C6.53276 6.90095 7.02844 6.39912 7.6397 6.08195C8.25096 5.76478 8.94666 5.64842 9.62786 5.74944C10.3227 5.85247 10.966 6.17626 11.4627 6.67296C11.9594 7.16966 12.2832 7.81295 12.3862 8.5078Z" fill="white" stroke="#939393" stroke-linecap="round" stroke-linejoin="round"/>
<path d="M13.614 4.522H13.6217" stroke="#939393" stroke-linecap="round" stroke-linejoin="round"/>
</svg>
