<svg width="80" height="28" viewBox="0 0 80 28" fill="none" xmlns="http://www.w3.org/2000/svg">
<path d="M80 0L21.4731 24.9211C16.6197 26.9737 12.5445 28 9.24741 28C5.50808 28 2.80029 26.6933 1.12404 24.0798C0.0667115 22.4037 -0.244685 20.2725 0.189851 17.6861C0.624387 15.0998 1.77391 12.3465 3.63841 9.42616C5.19862 7.06028 7.75232 3.94916 11.2995 0.0928297C10.0956 1.98834 9.2127 4.06954 8.68651 6.25252C7.75296 10.2352 8.59109 13.16 11.2009 15.0269C12.4452 15.8985 14.1562 16.3343 16.3341 16.3343C18.3213 16.3005 20.2965 16.0185 22.2138 15.495L80 0Z" fill="#111111"/>
</svg>
