<svg width="11" height="15" viewBox="0 0 11 15" fill="none" xmlns="http://www.w3.org/2000/svg">
<path d="M4.90944 0.5H6.09056C7.47519 0.5 8.21769 0.6946 8.89006 1.0607C9.5544 1.41874 10.0977 1.97188 10.4493 2.6483C10.8089 3.3329 11 4.0889 11 5.4987V9.5013C11 10.9111 10.8089 11.6671 10.4493 12.3517C10.0977 13.0281 9.5544 13.5813 8.89006 13.9393C8.21769 14.3054 7.47519 14.5 6.09056 14.5H4.90875C3.52413 14.5 2.78162 14.3054 2.10925 13.9393C1.44491 13.5813 0.901649 13.0281 0.55 12.3517C0.191125 11.6671 0 10.9111 0 9.5013V5.498C0 4.0882 0.191125 3.3322 0.550688 2.6476C0.902629 1.97134 1.44613 1.41844 2.11063 1.0607C2.78231 0.6946 3.52481 0.5 4.90944 0.5ZM4.8125 3.3V6.8H6.1875V3.3H4.8125Z" fill="white"/>
</svg>
