<svg width="21" height="18" viewBox="0 0 21 18" fill="none" xmlns="http://www.w3.org/2000/svg">
<path d="M20.6016 0.847839C19.7454 1.46489 18.7974 1.93683 17.7942 2.24549C17.2557 1.6129 16.5401 1.16454 15.7441 0.961046C14.9481 0.75755 14.1101 0.808738 13.3435 1.10769C12.5769 1.40664 11.9186 1.93892 11.4578 2.63256C10.9969 3.32619 10.7557 4.1477 10.7667 4.98598V5.89948C9.19544 5.94111 7.63852 5.58507 6.23458 4.86307C4.83063 4.14107 3.62324 3.07553 2.71993 1.76134C2.71993 1.76134 -0.856402 9.98282 7.19034 13.6368C5.349 14.9138 3.15549 15.5542 0.931763 15.4638C8.97851 20.0313 18.8134 15.4638 18.8134 4.95858C18.8126 4.70413 18.7887 4.4503 18.7419 4.20038C19.6544 3.28093 20.2983 2.12008 20.6016 0.847839Z" fill="white"/>
</svg>
