<svg width="23" height="17" viewBox="0 0 23 17" fill="none" xmlns="http://www.w3.org/2000/svg">
<path d="M21.3032 3.00679C21.1889 2.54994 20.956 2.13136 20.6281 1.79333C20.3002 1.45529 19.8889 1.20978 19.4358 1.08157C17.7801 0.677277 11.1573 0.677277 11.1573 0.677277C11.1573 0.677277 4.53461 0.677277 2.87892 1.12008C2.42577 1.24828 2.01448 1.4938 1.68659 1.83183C1.35869 2.16987 1.12581 2.58845 1.01146 3.04529C0.70845 4.72557 0.560229 6.43011 0.568666 8.13748C0.557864 9.8577 0.706095 11.5752 1.01146 13.2682C1.13753 13.7108 1.37563 14.1135 1.70275 14.4372C2.02988 14.761 2.43499 14.9949 2.87892 15.1164C4.53461 15.5592 11.1573 15.5592 11.1573 15.5592C11.1573 15.5592 17.7801 15.5592 19.4358 15.1164C19.8889 14.9882 20.3002 14.7427 20.6281 14.4046C20.956 14.0666 21.1889 13.648 21.3032 13.1912C21.6039 11.5235 21.7521 9.83199 21.746 8.13748C21.7568 6.41726 21.6086 4.69972 21.3032 3.00679Z" fill="white" stroke="white" stroke-opacity="0.8" stroke-linecap="round" stroke-linejoin="round"/>
<path d="M8.99152 11.2852L14.5265 8.13744L8.99152 4.98972V11.2852Z" stroke="#939393" stroke-linecap="round" stroke-linejoin="round"/>
</svg>
